<?xml version="1.0" encoding="UTF-8"?>
<svg xmlns="http://www.w3.org/2000/svg" width="48" height="49" viewBox="0 0 48 49" fill="none">
  <g clip-path="url(#clip0_2447_4436)">
    <path d="M11.9608 5.30176L3.05417 5.30307C1.36719 5.30307 6.10352e-05 6.67063 6.10352e-05 8.35761V16.9876C6.10352e-05 17.8791 0.389734 18.7265 1.06653 19.3068L29.6872 43.8392C30.2409 44.3135 30.9461 44.5745 31.6753 44.5745H40.5819C42.2689 44.5745 43.6364 43.2069 43.6364 41.5199V32.8887C43.6364 31.9972 43.2468 31.1498 42.57 30.5694L13.9493 6.03747C13.3956 5.5627 12.6904 5.30219 11.9608 5.30219V5.30176Z" fill="#FF8100"></path>
    <path d="M10.8895 5.30176H3.05461C1.36762 5.30176 6.10352e-05 6.66932 6.10352e-05 8.3563V18.1758C6.10352e-05 18.3202 0.0105338 18.4647 0.0306065 18.6078L3.98843 46.3156C4.20355 47.8206 5.49213 48.9381 7.01242 48.9381H18.7672C20.4546 48.9381 21.8222 47.5701 21.8217 45.8827L21.8182 31.9788C21.8182 31.6507 21.7654 31.3247 21.6616 31.0136L13.787 7.39019C13.3711 6.14307 12.2038 5.30176 10.8891 5.30176H10.8895Z" fill="url(#paint0_linear_2447_4436)"></path>
    <path d="M44.9457 0.938477H19.4694C18.2476 0.938477 17.1432 1.66677 16.6619 2.78953L4.61081 30.9075C4.44805 31.2876 4.36383 31.6973 4.36383 32.111V45.8839C4.36383 47.5709 5.73139 48.9385 7.41838 48.9385H20.8929C21.4963 48.9385 22.0863 48.7596 22.5886 48.4244L46.64 32.3719C47.4892 31.8055 47.9989 30.8521 47.9989 29.8314L48.0002 3.99302C48.0002 2.30604 46.6326 0.938477 44.9457 0.938477Z" fill="url(#paint1_linear_2447_4436)"></path>
    <path d="M39 9.93848H9V39.9385H39V9.93848Z" fill="black"></path>
    <path d="M12.75 22.9777H14.9841V15.6493H12.75V13.6885H19.3792V15.6493H17.1451V22.9777H19.3792V24.9385H12.75V22.9777Z" fill="white"></path>
    <path d="M20.5042 22.9136H22.1195C22.4461 22.9136 22.737 22.844 22.9914 22.7048C23.2458 22.5656 23.4426 22.3688 23.5818 22.1144C23.721 21.86 23.7907 21.5695 23.7907 21.2425V13.6885H25.9844V21.3946C25.9844 22.0697 25.8288 22.6764 25.5181 23.2149C25.2074 23.7533 24.779 24.1753 24.2324 24.4804C23.6858 24.7859 23.0726 24.9385 22.3924 24.9385H20.5042V22.9136Z" fill="white"></path>
    <path d="M12.75 33.9385H24.75V36.1885H12.75V33.9385Z" fill="white"></path>
  </g>
  <defs>
    <linearGradient id="paint0_linear_2447_4436" x1="-0.537976" y1="6.65405" x2="18.1092" y2="46.8737" gradientUnits="userSpaceOnUse">
      <stop offset="0.1" stop-color="#FC801D"></stop>
      <stop offset="0.59" stop-color="#FE2857"></stop>
    </linearGradient>
    <linearGradient id="paint1_linear_2447_4436" x1="3.16689" y1="45.9524" x2="47.1955" y2="1.92335" gradientUnits="userSpaceOnUse">
      <stop offset="0.21" stop-color="#FE2857"></stop>
      <stop offset="0.7" stop-color="#007EFF"></stop>
    </linearGradient>
    <clipPath id="clip0_2447_4436">
      <rect width="48" height="48" fill="white" transform="translate(0 0.938477)"></rect>
    </clipPath>
  </defs>
</svg>
